<?xml version="1.0" standalone="no"?>
<!DOCTYPE svg PUBLIC "-//W3C//DTD SVG 20010904//EN"
 "http://www.w3.org/TR/2001/REC-SVG-20010904/DTD/svg10.dtd">
<svg version="1.0" xmlns="http://www.w3.org/2000/svg"
 width="620.000000pt" height="620.000000pt" viewBox="0 0 620.000000 620.000000"
 preserveAspectRatio="xMidYMid meet">
<metadata>
Created by potrace 1.11, written by Peter Selinger 2001-2013
</metadata>
<g transform="translate(0.000000,620.000000) scale(0.100000,-0.100000)"
fill="#000000" stroke="none">
<path d="M3079 5073 c-6 -16 -18 -36 -26 -46 -15 -16 -15 -20 5 -47 32 -43 27
-46 -9 -6 -47 54 -124 87 -218 93 -135 9 -210 -18 -421 -150 -200 -125 -277
-156 -387 -152 -68 2 -123 21 -139 47 -5 7 -8 31 -9 53 0 34 -4 41 -27 49 -50
18 -78 -34 -39 -73 23 -23 21 -86 -5 -131 -60 -100 -219 -116 -237 -23 -3 17
2 32 15 45 22 22 27 20 33 -13 9 -44 67 -61 90 -26 31 49 -15 117 -80 117 -77
0 -118 -40 -118 -115 0 -56 23 -92 75 -115 22 -10 36 -20 31 -23 -4 -3 -75
-21 -158 -41 -358 -87 -469 -139 -541 -252 -43 -67 -56 -153 -30 -205 9 -17
16 -33 16 -33 0 -1 -31 -1 -68 -1 -55 0 -76 -5 -114 -28 -109 -64 -171 -174
-269 -477 l-62 -194 -18 40 c-31 74 -103 104 -173 73 -31 -15 -58 -70 -52
-106 2 -16 5 -31 5 -35 2 -17 47 -48 70 -48 34 0 48 10 51 35 4 38 0 46 -30
56 -16 6 -30 14 -30 18 0 16 26 31 51 31 36 0 59 -33 59 -83 0 -47 -20 -87
-60 -120 -41 -35 -67 -42 -86 -23 -19 20 -58 21 -73 2 -16 -19 -17 -82 -1
-101 16 -19 49 -19 78 0 17 13 26 14 44 4 56 -29 94 -81 98 -134 3 -48 1 -55
-24 -80 -22 -22 -28 -23 -55 -14 -39 14 -40 34 -2 47 56 20 40 92 -20 92 -91
0 -104 -155 -16 -191 68 -28 126 -3 164 69 l21 42 52 -162 c88 -279 131 -374
202 -446 61 -64 110 -86 189 -86 l67 -1 -15 -38 c-28 -68 0 -180 60 -245 47
-51 187 -125 277 -148 8 -2 51 -13 95 -25 44 -11 87 -22 95 -24 31 -6 146 -36
179 -47 l34 -11 -34 -14 c-40 -17 -78 -58 -80 -87 -5 -75 14 -120 57 -136 72
-28 147 7 147 69 0 39 -13 54 -48 54 -33 0 -47 -14 -48 -47 -2 -29 -6 -31 -29
-14 -26 22 -28 56 -5 83 55 61 179 25 223 -65 26 -52 27 -88 4 -117 -33 -42
-21 -83 26 -83 29 0 48 24 40 54 -8 34 1 52 40 77 42 26 138 32 211 13 60 -15
196 -79 214 -100 6 -8 16 -14 21 -14 5 0 35 -17 66 -38 131 -88 246 -138 332
-143 116 -8 232 30 284 91 28 34 36 28 10 -8 -14 -21 -14 -25 -1 -40 8 -9 21
-30 30 -47 l15 -30 12 30 c6 16 18 38 27 47 14 15 13 21 -7 55 l-23 38 33 -38
c52 -61 142 -97 242 -98 130 -1 200 26 406 159 163 104 259 144 355 148 71 2
119 -12 153 -43 21 -19 24 -29 19 -54 -8 -35 8 -59 39 -59 44 0 61 45 29 78
-23 23 -26 43 -13 91 27 101 172 164 234 102 19 -20 25 -66 10 -81 -17 -16
-36 -15 -39 3 -6 35 -14 44 -39 49 -37 7 -59 -13 -59 -52 0 -77 114 -110 174
-51 60 61 34 175 -47 201 -30 10 -39 24 -16 26 4 0 32 7 62 16 30 10 67 19 82
22 40 7 221 54 276 72 130 42 242 120 281 198 31 63 38 144 17 187 -9 18 -16
33 -16 33 0 1 30 1 68 2 80 0 132 24 189 85 73 78 113 165 203 446 l53 162 24
-49 c56 -112 207 -93 219 28 4 39 -17 86 -41 96 -50 19 -85 -1 -85 -47 0 -23
6 -31 30 -40 49 -18 34 -47 -25 -47 -47 0 -69 71 -44 137 13 35 46 71 82 89
24 13 30 13 49 -1 13 -8 30 -15 39 -15 25 0 49 33 49 68 0 53 -50 81 -84 46
-19 -19 -45 -12 -86 22 -96 82 -70 238 34 198 20 -8 21 -34 2 -34 -24 0 -46
-29 -46 -61 0 -22 5 -30 25 -35 56 -14 105 27 105 86 0 35 -29 86 -56 99 -70
31 -142 1 -173 -73 l-18 -40 -62 194 c-101 316 -168 428 -285 484 -38 18 -66
24 -107 23 l-56 -2 15 35 c20 49 10 127 -24 191 -46 84 -135 145 -281 193 -69
22 -247 68 -312 81 -21 4 -63 16 -111 31 -9 3 1 12 27 24 65 29 91 85 72 154
-27 98 -182 102 -204 4 -9 -35 26 -72 58 -63 27 9 49 35 43 52 -9 22 13 24 33
4 24 -24 20 -56 -9 -85 -14 -14 -33 -20 -69 -20 -86 0 -159 68 -165 155 -2 30
2 47 15 60 34 34 18 79 -28 79 -27 0 -47 -33 -39 -66 14 -55 -71 -97 -179 -89
-98 7 -165 35 -335 140 -166 104 -201 122 -280 146 -144 43 -305 10 -381 -79
l-32 -37 22 37 22 36 -26 37 c-13 21 -22 41 -19 46 3 5 0 9 -6 9 -6 0 -15 -12
-21 -27z m206 -83 c-27 -12 -43 -12 -25 0 8 5 22 9 30 9 10 0 8 -3 -5 -9z
m-324 -17 c13 -17 13 -17 -6 -3 -11 8 -22 16 -24 17 -2 2 0 3 6 3 6 0 17 -8
24 -17z m-325 -44 c-24 -28 -34 -59 -20 -59 3 0 15 5 27 12 30 16 67 19 68 5
1 -7 1 -20 0 -29 -1 -11 7 -18 25 -20 20 -2 28 -10 31 -26 5 -39 21 -59 49
-66 36 -9 49 12 21 34 -13 11 -18 23 -14 33 8 21 47 23 47 3 0 -48 84 -62 125
-22 l23 23 7 -21 c4 -11 6 -31 5 -43 0 -11 4 -24 9 -28 6 -3 11 -17 11 -30 0
-13 7 -31 16 -39 14 -15 -41 -16 -604 -16 l-620 0 19 37 c10 21 19 43 19 51 0
7 3 12 8 10 63 -33 97 -42 163 -46 122 -6 185 18 414 158 204 125 212 129 171
79z m979 -12 c28 -16 95 -57 150 -91 179 -111 268 -142 384 -133 36 2 87 14
112 25 l46 20 13 -37 c7 -20 15 -42 17 -48 4 -10 -125 -13 -623 -13 -514 0
-624 3 -604 13 18 9 25 21 25 40 0 15 6 31 13 36 8 5 13 17 11 27 -1 11 1 27
6 36 7 17 9 17 35 -2 48 -34 120 -19 120 26 0 19 39 18 47 -2 3 -8 -4 -25 -16
-38 -19 -20 -20 -24 -6 -29 19 -8 64 8 70 25 3 7 6 24 7 38 2 18 10 26 28 30
18 4 26 13 28 31 3 25 6 26 35 19 18 -4 40 -11 50 -15 26 -11 22 18 -9 54 -30
37 -18 34 61 -12z m-746 2 c-22 -14 -33 -10 -19 6 7 8 17 12 22 9 6 -4 5 -10
-3 -15z m477 -7 c-9 -9 -37 8 -31 18 5 8 11 7 21 -1 8 -6 12 -14 10 -17z
m-319 -74 c-3 -8 -6 -5 -6 6 -1 11 2 17 5 13 3 -3 4 -12 1 -19z m140 0 c-3 -8
-6 -5 -6 6 -1 11 2 17 5 13 3 -3 4 -12 1 -19z m-1330 -358 c-1 -128 -3 -150
-16 -151 -124 -9 -320 -78 -436 -154 -87 -56 -242 -216 -306 -315 -70 -107
-98 -158 -197 -351 -94 -183 -120 -226 -179 -297 -59 -69 -70 -74 -124 -56
-91 32 -197 21 -226 -23 -12 -17 -11 -23 4 -42 34 -41 140 -49 232 -17 l42 16
49 -49 c64 -64 100 -122 209 -335 109 -212 153 -289 218 -377 156 -215 348
-347 583 -404 58 -14 114 -25 126 -25 20 0 21 -5 21 -145 0 -80 -1 -145 -4
-145 -2 0 -18 14 -35 30 -16 17 -63 50 -104 73 -66 38 -72 45 -59 58 37 36 24
103 -24 132 -43 25 -108 37 -121 22 -5 -6 -7 -15 -3 -18 3 -4 -4 -7 -16 -7
-14 0 -25 9 -32 28 -20 54 -75 67 -63 13 10 -41 41 -98 70 -126 14 -14 24 -28
22 -30 -2 -2 -26 2 -53 9 -34 9 -49 18 -46 27 2 8 7 25 11 39 10 34 -17 90
-50 108 -16 8 -42 11 -73 7 -38 -5 -48 -3 -45 7 2 7 14 17 26 23 46 21 9 55
-40 36 -55 -21 -66 -75 -28 -136 18 -30 19 -35 6 -35 -17 0 -27 19 -45 86 -12
45 -33 68 -71 77 -32 8 -60 -7 -43 -24 15 -15 5 -39 -17 -39 -9 0 -25 8 -34
19 -22 24 -12 71 15 71 11 0 22 6 25 14 3 8 12 12 20 9 8 -3 20 -1 27 5 9 8
19 4 36 -14 13 -13 28 -24 35 -24 18 0 37 39 38 79 1 81 -62 144 -137 139
l-41 -3 13 38 c43 123 -87 231 -194 161 -26 -16 -22 -36 14 -59 19 -13 22 -19
13 -30 -6 -7 -10 -17 -9 -21 3 -15 -22 -74 -32 -75 -5 -1 -15 -2 -21 -3 -19
-3 -48 25 -48 46 0 14 6 18 26 16 31 -3 39 19 22 58 -11 24 -63 54 -95 54 -34
0 -63 12 -63 26 0 18 5 18 35 -2 67 -44 147 6 127 80 -7 27 -20 24 -37 -8 -18
-32 -30 -18 -27 29 3 39 0 49 -26 75 -24 24 -27 30 -13 30 43 0 29 42 -19 58
-34 12 -38 29 -13 47 34 25 -18 134 -74 156 -24 9 -83 -7 -83 -22 0 -22 -18
-3 -64 65 -27 41 -66 85 -91 101 l-42 29 41 30 c52 38 55 40 96 105 19 30 38
59 42 65 5 7 12 5 20 -6 7 -9 27 -19 43 -21 55 -8 96 29 115 103 10 38 9 46
-6 57 -20 15 -12 43 14 43 24 0 56 35 47 50 -14 23 -133 -16 -164 -54 -24 -29
-29 -17 -13 32 8 26 16 48 17 50 1 1 17 -4 36 -11 72 -29 143 22 137 98 -4 49
12 60 31 21 13 -28 15 -28 27 -11 15 21 9 61 -14 88 -19 22 -80 23 -110 1 -27
-19 -41 -12 -22 11 7 8 25 15 40 15 48 0 87 20 105 54 23 42 15 65 -19 59 -20
-4 -26 -1 -26 13 0 28 28 52 55 46 14 -2 25 -8 25 -13 0 -20 2 -25 16 -40 8
-9 11 -19 8 -22 -4 -4 -2 -13 5 -21 10 -11 6 -18 -19 -36 -24 -17 -28 -25 -20
-40 21 -39 107 -47 157 -14 51 33 75 116 48 168 -14 26 -14 26 28 26 77 0 133
54 139 132 2 33 -23 88 -39 88 -4 0 -17 -10 -29 -21 -18 -17 -30 -20 -58 -15
-20 4 -36 11 -36 16 0 6 -9 10 -20 10 -32 0 -39 49 -10 72 25 20 29 21 49 9
12 -8 12 -12 2 -25 -36 -43 49 -44 86 -2 13 15 26 45 29 66 8 46 25 75 44 68
10 -3 10 -7 -2 -18 -21 -21 -37 -73 -31 -102 5 -28 46 -55 82 -54 30 1 39 23
14 33 -39 14 -45 48 -5 38 54 -14 60 -13 94 10 44 30 61 79 42 124 -10 25 -11
33 -1 36 31 10 91 24 94 22 1 -2 -9 -16 -23 -32 -52 -60 -84 -149 -58 -159 17
-6 54 27 54 48 0 23 31 28 46 8 11 -16 20 -18 52 -12 100 18 150 91 103 152
l-19 24 78 44 c42 24 90 58 106 76 16 18 30 33 31 33 1 1 1 -66 0 -149z m2546
115 c12 -14 58 -46 103 -73 l81 -48 -19 -24 c-36 -45 -1 -118 66 -139 54 -17
91 -18 91 -1 0 29 32 22 45 -10 23 -57 75 -63 59 -7 l-9 31 28 -32 c32 -38 75
-53 115 -39 40 13 47 -1 13 -28 -33 -26 -28 -44 12 -40 75 6 97 67 50 143 -13
21 -15 32 -7 32 18 0 38 -32 39 -60 0 -36 35 -89 66 -101 40 -15 86 6 54 26
-15 9 0 35 21 35 25 0 52 -43 44 -70 -3 -11 -15 -20 -26 -20 -11 0 -22 -7 -25
-15 -4 -8 -10 -12 -15 -9 -5 2 -17 0 -27 -5 -15 -8 -24 -5 -42 14 -32 34 -45
31 -62 -12 -37 -90 32 -183 136 -183 34 0 35 -1 22 -25 -8 -14 -12 -44 -11
-67 7 -102 129 -162 206 -100 l22 18 -30 29 -29 29 19 52 c21 57 43 71 76 47
35 -24 25 -71 -10 -52 -26 14 -35 -12 -18 -52 13 -33 59 -59 102 -59 27 0 65
-25 55 -36 -4 -3 -19 1 -32 10 -55 35 -125 11 -128 -45 -3 -65 12 -78 34 -31
18 38 34 25 30 -25 -3 -37 1 -47 26 -73 26 -25 27 -30 12 -30 -10 0 -22 -5
-25 -11 -9 -14 24 -49 47 -49 26 0 34 -28 14 -43 -32 -24 8 -127 59 -154 28
-15 77 -7 92 13 7 10 14 16 16 13 2 -2 23 -32 46 -66 50 -75 84 -111 120 -125
25 -10 25 -10 6 -22 -35 -20 -111 -100 -141 -148 -31 -51 -38 -56 -51 -34 -12
22 -56 26 -91 9 -21 -10 -37 -30 -51 -63 -25 -58 -26 -79 -6 -86 25 -10 17
-34 -15 -46 -26 -9 -50 -34 -50 -52 0 -3 11 -6 24 -6 l24 0 -30 -30 c-26 -26
-29 -36 -26 -75 4 -52 -11 -62 -31 -21 -13 27 -15 28 -26 12 -7 -9 -12 -25
-10 -34 2 -9 4 -22 4 -29 3 -40 85 -58 129 -27 28 20 45 8 18 -12 -17 -12 -60
-19 -68 -12 -9 7 -68 -39 -77 -59 -20 -44 -6 -78 23 -54 15 13 26 5 26 -20 0
-22 -41 -52 -61 -44 -8 3 -24 29 -35 57 l-22 53 24 20 c13 11 24 29 24 38 0
21 -53 46 -90 42 -14 -1 -30 -3 -37 -4 -6 0 -25 -13 -42 -27 -42 -35 -57 -93
-39 -148 l14 -41 -31 3 c-100 12 -176 -99 -133 -193 14 -31 29 -32 58 -2 20
21 26 22 56 13 19 -6 34 -14 34 -18 0 -5 9 -8 19 -8 28 0 36 -36 16 -66 -18
-28 -63 -31 -56 -4 10 40 6 45 -29 43 -43 -2 -77 -39 -86 -93 -8 -46 -25 -75
-43 -69 -9 3 -7 12 7 30 11 13 23 40 25 58 7 44 -33 89 -78 87 -37 -2 -44 -23
-11 -37 36 -17 35 -44 -1 -35 -65 16 -106 0 -133 -54 -16 -31 -17 -40 -4 -75
7 -21 12 -40 11 -40 -6 -4 -102 -23 -104 -21 -1 1 9 15 23 31 46 53 79 132 64
155 -11 18 -47 -8 -59 -42 -7 -19 -17 -28 -31 -28 -12 0 -19 4 -16 9 13 20
-20 28 -67 16 -86 -22 -129 -90 -90 -143 l19 -26 -79 -48 c-44 -26 -93 -62
-108 -79 l-27 -31 1 148 2 147 103 23 c215 48 357 123 496 261 118 117 193
231 341 517 53 105 104 201 113 215 42 67 95 132 124 155 l33 25 55 -19 c107
-36 238 -6 223 51 -14 50 -106 67 -216 40 l-68 -18 -40 35 c-56 49 -112 139
-222 353 -53 103 -115 218 -138 255 -187 308 -423 480 -730 534 l-77 14 1 143
c0 79 2 143 4 143 2 0 14 -11 26 -25z m-100 -34 c15 -1 17 -14 17 -136 0 -133
0 -135 23 -136 203 -12 388 -98 542 -253 117 -118 191 -225 340 -491 110 -196
179 -299 250 -370 l61 -61 -61 -60 c-73 -71 -120 -141 -255 -379 -159 -278
-248 -405 -358 -507 -140 -129 -298 -203 -484 -224 l-57 -7 -3 -135 -3 -136
-1200 0 -1200 1 -3 136 -3 137 -27 1 c-136 4 -318 73 -442 167 -140 106 -243
240 -415 542 -150 262 -196 331 -271 406 l-61 61 39 34 c65 55 150 177 269
386 168 296 230 386 350 505 118 118 293 213 430 233 24 3 53 8 64 10 11 2 30
4 43 4 22 1 22 3 22 139 l0 137 1188 -2 c653 -1 1195 -2 1205 -2z m489 -125
c25 -8 50 -11 54 -8 4 4 4 -2 -1 -13 -4 -11 -10 -35 -14 -54 l-6 -34 -30 46
c-16 26 -32 47 -36 47 -4 0 -9 7 -13 15 -3 8 -4 15 -3 15 1 0 23 -7 49 -14z
m-3766 -338 c-3 -24 -17 -38 -37 -38 -10 0 -19 5 -19 10 0 6 6 10 14 10 7 0
19 7 26 15 15 18 19 19 16 3z m4239 -21 c4 5 5 2 1 -4 -9 -17 -41 -16 -55 0
-17 21 -2 28 23 11 13 -8 26 -11 31 -7z m-4339 -162 c-3 -8 -14 -15 -25 -15
-19 0 -19 1 2 25 22 24 34 18 23 -10z m4409 -14 c-11 -10 -35 11 -35 30 0 21
0 21 19 -2 11 -13 18 -26 16 -28z m356 -381 c8 -28 14 -50 12 -50 -1 0 -25 16
-53 36 -27 19 -52 35 -55 34 -3 -1 -11 1 -18 3 -6 3 4 6 23 6 19 1 42 6 50 11
23 15 24 14 41 -40z m-5113 -405 c7 -6 -61 -10 -108 -6 -12 1 -12 3 -2 10 14
8 101 5 110 -4z m5187 6 c6 -1 4 -5 -3 -9 -7 -5 -31 -7 -55 -6 -60 3 -65 5
-37 14 21 6 41 6 95 1z m-5155 -417 l35 -18 -30 -7 c-16 -3 -37 -10 -46 -13
-13 -6 -19 2 -28 38 -15 61 -14 63 12 39 12 -11 38 -29 57 -39z m5080 4 c-17
-54 -14 -52 -42 -37 -12 7 -36 12 -53 11 -26 -2 -24 1 20 21 28 13 56 31 64
41 21 25 26 11 11 -36z m-4764 -393 c11 -28 -1 -34 -23 -10 -21 24 -21 25 -2
25 11 0 22 -7 25 -15z m4401 -7 c-22 -23 -34 -20 -23 7 3 8 14 15 25 15 20 0
20 -1 -2 -22z m-4307 -157 c6 -12 6 -22 1 -25 -5 -3 -11 1 -15 9 -3 8 -12 15
-21 15 -8 0 -15 5 -15 10 0 18 39 11 50 -9z m4240 9 c0 -5 -7 -10 -15 -10 -9
0 -18 -7 -21 -15 -4 -8 -10 -12 -15 -9 -15 9 10 44 31 44 11 0 20 -4 20 -10z
m-2160 -577 c-21 -8 -30 -24 -30 -55 0 -16 -4 -28 -10 -28 -5 0 -10 -10 -10
-22 0 -13 -3 -33 -6 -46 -6 -23 -7 -23 -21 -3 -15 22 -70 36 -102 26 -12 -3
-24 -17 -27 -31 -4 -15 -13 -24 -25 -24 -29 0 -36 30 -12 50 28 22 15 43 -21
34 -28 -7 -55 -47 -51 -76 3 -14 -4 -18 -27 -18 -22 0 -29 -4 -27 -17 1 -10 1
-23 0 -30 -1 -14 -38 -11 -68 5 -28 15 -33 15 -33 -3 0 -8 14 -30 31 -49 l30
-35 -57 31 c-32 16 -92 52 -134 79 -90 58 -263 147 -305 157 -16 4 -68 7 -115
6 -77 -1 -111 -9 -172 -41 -3 -2 -12 13 -18 34 -7 21 -17 44 -23 51 -7 9 118
12 619 11 346 0 622 -3 614 -6z m1249 -33 c-10 -21 -19 -44 -19 -50 0 -13 1
-13 -51 12 -61 29 -168 36 -244 13 -73 -21 -169 -68 -277 -138 -88 -56 -194
-117 -204 -117 -3 0 6 14 20 31 14 17 26 34 26 39 0 15 -20 22 -33 11 -7 -5
-25 -12 -40 -15 -27 -5 -31 1 -28 37 2 13 -5 17 -27 17 -21 0 -29 5 -29 18 0
43 -5 52 -34 67 -17 9 -38 14 -46 10 -14 -5 -13 -9 7 -30 25 -27 21 -55 -9
-55 -12 0 -21 9 -25 24 -3 14 -15 28 -27 31 -32 10 -87 -4 -102 -26 -14 -20
-15 -20 -22 3 -4 13 -6 33 -5 44 0 12 -6 24 -14 27 -9 4 -12 14 -9 25 3 12 -3
28 -16 41 l-21 21 624 0 624 0 -19 -40z m-1302 -172 c-3 -8 -6 -5 -6 6 -1 11
2 17 5 13 3 -3 4 -12 1 -19z m140 0 c-3 -8 -6 -5 -6 6 -1 11 2 17 5 13 3 -3 4
-12 1 -19z m-297 -73 c7 -8 8 -15 2 -15 -5 0 -15 7 -22 15 -7 8 -8 15 -2 15 5
0 15 -7 22 -15z m470 0 c-7 -8 -17 -15 -22 -15 -6 0 -5 7 2 15 7 8 17 15 22
15 6 0 5 -7 -2 -15z m-370 -49 c0 -2 -7 -7 -16 -10 -8 -3 -12 -2 -9 4 6 10 25
14 25 6z m315 -16 c13 -6 15 -9 5 -9 -8 0 -22 4 -30 9 -18 12 -2 12 25 0z"/>
<path d="M2469 4538 c-1 -2 -3 -68 -3 -147 l-2 -143 39 5 c47 6 102 49 128 97
l19 35 0 -70 0 -71 100 1 100 0 0 123 c0 67 1 125 3 130 1 4 -13 8 -31 10
l-33 3 2 -78 c2 -123 3 -120 -41 -64 -33 42 -40 58 -40 96 0 43 -1 45 -30 45
-28 0 -30 -2 -30 -41 0 -24 -4 -38 -10 -34 -5 3 -10 24 -10 45 0 49 -18 60
-99 60 -34 0 -62 -1 -62 -2z m109 -136 c4 -23 -34 -76 -47 -68 -5 3 -6 77 -2
94 1 2 11 2 24 0 14 -2 23 -11 25 -26z m146 -87 c3 -8 1 -15 -4 -15 -6 0 -10
7 -10 15 0 8 2 15 4 15 2 0 6 -7 10 -15z"/>
<path d="M2872 4378 c3 -141 1 -135 48 -129 6 0 10 19 10 42 0 32 9 52 43 97
24 31 47 64 50 72 3 8 6 1 6 -17 1 -39 18 -80 45 -110 l19 -23 -26 0 c-29 0
-46 -32 -27 -55 16 -19 67 -2 105 35 28 28 30 36 34 115 5 127 17 103 16 -32
0 -65 4 -121 8 -124 29 -21 156 68 158 109 0 9 2 25 4 34 2 9 -3 28 -11 43 -7
14 -13 29 -13 33 6 41 2 42 -111 41 l-109 -1 3 -57 c1 -31 0 -66 -4 -76 -9
-27 -42 58 -38 99 l3 31 -108 3 -108 3 3 -133z m73 73 c3 -5 1 -12 -5 -16 -5
-3 -10 1 -10 9 0 18 6 21 15 7z m359 -56 c3 -9 -6 -29 -23 -47 l-28 -32 1 47
c0 41 3 47 22 47 12 0 24 -7 28 -15z"/>
<path d="M3374 4380 c0 -71 4 -131 8 -131 4 -1 15 -1 23 -1 31 0 34 3 29 40
-5 35 -5 36 10 18 9 -11 16 -27 16 -37 0 -9 6 -19 13 -21 10 -4 101 -3 125 1
4 0 6 16 4 34 -3 27 0 33 18 34 18 2 20 -2 16 -27 -4 -30 8 -47 34 -45 8 1 21
3 29 3 8 1 11 8 7 18 -9 24 -19 111 -20 182 l0 63 -66 -3 -65 -3 -2 -60 c-2
-83 -13 -165 -22 -165 -3 0 -22 32 -40 70 l-33 71 41 36 c23 19 41 39 41 44 0
5 -20 9 -45 9 -33 0 -45 -4 -45 -15 0 -8 -4 -15 -10 -15 -5 0 -9 6 -7 13 1 7
-11 13 -28 15 l-31 3 0 -131z m256 30 c0 -22 -4 -40 -10 -40 -5 0 -10 18 -10
40 0 22 5 40 10 40 6 0 10 -18 10 -40z"/>
<path d="M1993 4147 c-3 -6 3 -17 13 -26 18 -14 126 -16 1082 -16 1092 1 1104
1 1074 38 -10 12 -185 14 -1087 14 -715 0 -1078 -3 -1082 -10z"/>
<path d="M3143 3928 c-4 -7 -8 -87 -9 -178 l0 -165 -40 -9 c-97 -22 -112 -27
-141 -56 -50 -49 -52 -113 -7 -205 33 -66 143 -172 228 -220 62 -35 69 -36 84
-21 15 14 14 18 -16 47 l-31 31 -1 369 c0 356 0 369 19 369 26 0 44 23 29 38
-16 16 -105 15 -115 0z m-9 -561 c-1 -83 -2 -159 -3 -167 -2 -33 -100 91 -120
152 -34 104 0 164 94 167 l30 1 -1 -153z"/>
<path d="M2180 3659 c-146 -44 -157 -173 -37 -402 43 -80 49 -99 37 -107 -8
-5 -17 -7 -21 -4 -11 6 -31 -24 -24 -36 10 -15 142 -13 148 3 3 7 -26 76 -64
153 -113 229 -105 326 27 347 l32 5 -2 -146 -1 -146 -25 -6 c-23 -5 -26 -11
-21 -39 0 -5 13 -11 28 -13 22 -2 29 -9 33 -33 7 -43 41 -41 52 3 6 21 15 32
27 32 22 0 45 25 36 40 -3 5 -14 10 -25 10 -10 0 -20 6 -22 13 -3 6 -4 73 -4
147 l1 135 32 -2 c44 -2 80 -29 94 -70 20 -63 5 -125 -69 -277 -38 -78 -67
-147 -64 -154 5 -15 138 -17 147 -2 9 15 -15 42 -31 36 -31 -12 -22 21 37 139
61 121 63 128 64 204 0 92 -15 121 -80 155 -31 16 -62 21 -155 23 -63 1 -131
-2 -150 -8z"/>
<path d="M2655 3563 c-4 -16 -8 -36 -10 -46 -10 -50 30 -65 46 -17 6 17 15 30
20 30 19 0 72 -76 57 -83 -1 -1 -24 -13 -50 -26 -135 -67 -197 -176 -144 -253
29 -43 81 -59 209 -65 114 -6 142 2 117 31 -7 9 -16 14 -20 11 -18 -11 -24 26
-26 160 -2 99 -6 150 -17 175 -27 63 -93 110 -152 110 -19 0 -26 -7 -30 -27z
m121 -295 l-1 -113 -27 -1 c-40 -1 -108 32 -109 53 -2 39 4 68 19 91 19 29
102 93 112 87 4 -3 7 -56 6 -117z"/>
<path d="M3370 3584 c-1 -5 -5 -28 -9 -51 -5 -27 -4 -46 2 -52 19 -19 35 -12
42 19 7 33 7 33 30 24 15 -6 45 -53 45 -72 0 -4 -18 -16 -40 -26 -101 -44
-175 -132 -172 -203 3 -83 73 -118 243 -122 102 -2 109 -1 109 17 0 13 -9 22
-25 26 -14 4 -25 14 -25 24 -1 9 -2 76 -3 147 -2 113 -5 136 -25 177 -14 28
-37 56 -58 69 -36 22 -114 38 -114 23z m120 -315 l0 -120 -47 7 c-103 14 -123
92 -45 172 23 24 75 59 90 62 1 0 2 -54 2 -121z"/>
<path d="M3640 3570 c-19 -11 -4 -40 20 -40 23 0 21 15 23 -213 1 -82 0 -152
-3 -157 -3 -4 -15 -11 -28 -15 -14 -4 -22 -13 -20 -23 3 -14 15 -17 63 -17
l60 0 5 211 5 211 49 -12 c27 -7 56 -21 63 -31 31 -43 5 -163 -64 -295 -19
-37 -32 -72 -29 -78 10 -16 143 -14 150 2 5 10 7 10 12 0 7 -15 140 -18 148
-4 9 14 -5 43 -19 37 -6 -2 -17 -1 -24 4 -9 5 -3 25 23 79 87 171 80 276 -20
326 -34 17 -62 19 -220 21 -100 1 -187 -2 -194 -6z m393 -79 c41 -40 26 -137
-44 -275 -42 -84 -52 -96 -64 -76 -3 5 -12 7 -20 4 -27 -11 -26 22 4 82 59
120 75 213 46 278 -8 17 -5 19 26 12 19 -3 42 -15 52 -25z"/>
<path d="M2365 3045 c-48 -22 -56 -30 -70 -71 -18 -52 -6 -64 64 -64 66 0 129
-16 155 -38 24 -22 17 -92 -18 -159 -24 -47 -128 -163 -147 -163 -5 0 -12 14
-16 31 -4 23 -10 29 -27 27 -19 -3 -21 -9 -19 -62 3 -89 16 -96 90 -46 113 75
214 198 233 285 7 30 7 30 19 -15 26 -90 80 -173 169 -257 65 -61 79 -58 88
20 4 33 2 46 -9 50 -16 6 -32 -3 -38 -22 -6 -17 -82 90 -110 155 -46 107 -25
194 49 196 43 1 51 -8 53 -65 4 -84 49 -91 49 -7 0 58 7 80 26 80 8 0 14 4 14
9 0 5 15 2 33 -7 l34 -15 -1 -181 -1 -181 -27 -13 c-30 -14 -35 -26 -17 -38
18 -11 159 -8 171 4 12 12 -8 46 -22 37 -20 -12 -27 31 -25 160 2 174 18 215
85 215 21 0 25 -15 29 -90 3 -61 10 -74 34 -64 26 9 25 189 0 202 -22 11 -96
7 -119 -6 -11 -6 -25 -5 -41 3 -14 7 -43 11 -66 8 -23 -2 -49 -4 -57 -4 -156
6 -199 3 -247 -22 -33 -17 -68 -79 -59 -103 3 -9 1 -12 -4 -9 -6 3 -10 17 -10
30 0 21 -20 46 -62 78 -24 18 -13 75 16 79 13 2 21 10 21 23 0 18 -7 20 -95
22 -65 2 -104 -2 -125 -12z m113 -48 c6 -5 12 -16 12 -26 0 -16 -5 -17 -38
-11 -21 4 -46 6 -55 4 -31 -4 -17 25 16 34 36 10 47 10 65 -1z"/>
<path d="M3305 2943 c-12 -69 -10 -83 13 -83 10 0 22 12 29 30 7 19 16 28 25
25 14 -6 48 -56 48 -72 0 -4 -26 -21 -57 -38 -65 -34 -128 -92 -144 -132 -18
-47 -13 -103 12 -130 31 -32 112 -54 206 -54 117 -1 123 0 123 16 0 16 -34 38
-44 28 -7 -8 -7 -4 -10 167 -2 79 -8 147 -15 165 -24 59 -85 105 -148 112 -30
3 -32 1 -38 -34z m125 -284 l0 -122 -47 7 c-67 9 -93 29 -93 71 0 46 32 94 89
134 25 17 47 31 48 31 2 0 3 -55 3 -121z"/>
<path d="M3581 2962 c-21 -7 -12 -40 12 -44 l22 -3 0 -275 0 -275 -22 -3 c-15
-2 -23 -10 -23 -23 0 -20 4 -21 95 -21 81 0 85 1 85 21 0 13 -8 21 -22 23 -21
3 -23 9 -26 66 -3 60 -2 64 30 90 189 156 242 352 113 415 -17 8 -46 18 -65
22 -37 8 -180 13 -199 7z m193 -66 c18 -8 40 -24 49 -36 33 -47 -6 -168 -81
-250 l-41 -45 -1 173 c0 166 1 172 20 172 11 0 36 -6 54 -14z"/>
<path d="M2000 2076 c0 -37 3 -37 1057 -37 565 0 1047 0 1071 1 39 0 43 2 40
23 l-3 22 -1082 3 c-916 2 -1083 0 -1083 -12z"/>
<path d="M2354 1981 c-2 -2 -4 -17 -4 -33 0 -24 4 -28 30 -28 l30 0 1 -72 c0
-40 0 -92 -1 -115 -1 -42 -1 -43 32 -43 l34 0 -1 115 c-1 100 1 115 15 115 23
0 48 22 52 45 3 18 -3 19 -90 20 -52 0 -96 -2 -98 -4z"/>
<path d="M2559 1957 c-1 -1 -3 -62 -4 -135 l-3 -133 31 3 c31 3 32 5 29 45 -3
40 19 93 38 93 5 0 6 -32 4 -71 l-3 -70 31 3 32 3 0 73 c-1 39 2 72 5 72 4 0
12 -15 19 -34 26 -71 91 -114 176 -115 l55 0 -4 73 c-4 79 1 93 28 93 16 0 18
-9 16 -81 l-2 -81 31 -3 32 -3 0 129 c0 137 -3 147 -48 135 -13 -3 -18 -11
-15 -23 4 -13 -1 -17 -20 -17 -19 0 -23 4 -20 18 5 18 0 22 -32 22 -8 0 -19
-1 -23 -2 -5 0 -7 -50 -5 -111 l3 -110 -43 24 c-67 38 -97 95 -71 137 4 7 20
8 41 4 34 -6 34 -6 31 26 -2 27 -8 33 -32 36 -58 8 -104 -29 -109 -85 0 -12
-5 -22 -10 -22 -5 0 -6 23 -4 50 5 51 4 53 -38 53 -29 0 -35 -3 -35 -16 0 -7
-7 -22 -16 -33 -15 -18 -15 -18 -11 9 2 15 0 30 -4 33 -10 6 -48 14 -50 11z"/>
<path d="M3099 1955 c-1 0 -3 -60 -4 -132 l-2 -133 73 0 74 0 0 31 c0 28 -2
30 -32 29 -60 -3 -59 -4 -56 53 l3 52 37 -2 c36 -2 37 -2 44 43 3 25 3 48 0
52 -5 5 -126 11 -137 7z"/>
<path d="M3265 1954 c-6 -3 -9 -54 -8 -131 l2 -128 32 0 32 0 -2 82 c-2 62 1
81 11 79 30 -4 34 -17 32 -91 l-2 -76 30 3 30 3 1 127 c2 88 -2 129 -9 132
-24 9 -49 -2 -48 -21 0 -13 -7 -20 -23 -21 -17 -1 -23 3 -23 18 0 11 -3 20 -7
21 -5 0 -15 2 -23 3 -8 2 -19 2 -25 0z"/>
<path d="M3449 1957 c-1 -1 -3 -62 -4 -135 l-3 -133 32 3 c30 3 31 4 29 49 -1
34 5 53 21 74 l22 28 0 -74 -1 -74 30 0 30 0 0 127 c0 132 -2 140 -41 133 -11
-2 -23 -4 -28 -4 -5 -1 -6 -4 -3 -7 9 -9 -11 -44 -25 -44 -6 0 -8 11 -6 25 3
14 2 25 -1 26 -3 0 -16 2 -28 5 -13 2 -24 3 -24 1z"/>
<path d="M3640 1953 c-12 -3 -15 -25 -13 -131 l1 -127 74 0 c76 0 75 -1 69 45
0 5 -19 9 -41 7 -43 -4 -42 -4 -42 58 0 19 0 39 1 44 1 5 17 9 38 8 29 -2 37
2 39 18 2 11 5 32 8 48 2 16 0 28 -7 28 -30 3 -114 4 -127 2z"/>
</g>
</svg>
